# Blender v2.79 (sub 0) OBJ File: 'wheel.blend'
# www.blender.org
mtllib wheel.mtl
o Cube.001_Cube.002
v -0.384626 -0.176032 -0.076507
v -0.392161 -0.176032 -0.000000
v -0.440793 -0.111727 -0.000000
v -0.440793 0.111727 -0.000000
v -0.432323 -0.111727 -0.085995
v -0.432323 0.111727 -0.085995
v -0.407239 -0.111727 -0.168685
v -0.407239 0.111727 -0.168684
v -0.366506 -0.111727 -0.244892
v -0.366506 0.111727 -0.244892
v -0.311687 -0.111727 -0.311688
v -0.311687 0.111727 -0.311688
v -0.244891 -0.111727 -0.366507
v -0.244891 0.111727 -0.366506
v -0.168684 -0.111727 -0.407240
v -0.168684 0.111727 -0.407240
v -0.085994 -0.111727 -0.432324
v -0.085994 0.111727 -0.432324
v 0.000000 -0.111727 -0.440794
v 0.000000 0.111727 -0.440794
v 0.085995 -0.111727 -0.432324
v 0.085995 0.111727 -0.432324
v 0.168685 -0.111727 -0.407240
v 0.168685 0.111727 -0.407240
v 0.244892 -0.111727 -0.366507
v 0.244892 0.111727 -0.366506
v 0.311688 -0.111727 -0.311688
v 0.311688 0.111727 -0.311688
v 0.366507 -0.111727 -0.244892
v 0.366507 0.111727 -0.244892
v 0.407240 -0.111727 -0.168684
v 0.407240 0.111727 -0.168684
v 0.432324 -0.111727 -0.085995
v 0.432324 0.111727 -0.085995
v 0.440794 -0.111727 0.000000
v 0.440794 0.111727 -0.000000
v 0.432324 -0.111727 0.085995
v 0.432324 0.111727 0.085995
v 0.407240 -0.111727 0.168684
v 0.407240 0.111727 0.168684
v 0.366506 -0.111727 0.244892
v 0.366506 0.111727 0.244892
v 0.311688 -0.111727 0.311688
v 0.311688 0.111727 0.311688
v 0.244892 -0.111727 0.366506
v 0.244892 0.111727 0.366506
v 0.168684 -0.111727 0.407240
v 0.168684 0.111727 0.407240
v 0.085994 -0.111727 0.432323
v 0.085994 0.111727 0.432323
v -0.000000 -0.111727 0.440793
v -0.000000 0.111727 0.440793
v -0.085995 -0.111727 0.432323
v -0.085995 0.111727 0.432323
v -0.168684 -0.111727 0.407239
v -0.168684 0.111727 0.407239
v -0.244892 -0.111727 0.366506
v -0.244892 0.111727 0.366506
v -0.311688 -0.111727 0.311687
v -0.311688 0.111727 0.311687
v -0.366506 -0.111727 0.244891
v -0.366506 0.111727 0.244891
v -0.407240 -0.111727 0.168684
v -0.407240 0.111727 0.168684
v -0.432323 -0.111727 0.085994
v -0.432323 0.111727 0.085994
v -0.384626 0.176032 -0.076507
v -0.392161 0.176032 -0.000000
v -0.362310 -0.176032 -0.150074
v -0.362310 0.176032 -0.150074
v -0.326070 -0.176032 -0.217874
v -0.326070 0.176032 -0.217874
v -0.277300 -0.176032 -0.277301
v -0.277300 0.176032 -0.277300
v -0.217873 -0.176032 -0.326071
v -0.217873 0.176032 -0.326071
v -0.150073 -0.176032 -0.362311
v -0.150073 0.176032 -0.362310
v -0.076507 -0.176032 -0.384627
v -0.076507 0.176032 -0.384627
v 0.000000 -0.176032 -0.392162
v 0.000000 0.176032 -0.392162
v 0.076507 -0.176032 -0.384627
v 0.076507 0.176032 -0.384627
v 0.150074 -0.176032 -0.362311
v 0.150074 0.176032 -0.362310
v 0.217874 -0.176032 -0.326071
v 0.217874 0.176032 -0.326071
v 0.277300 -0.176032 -0.277301
v 0.277300 0.176032 -0.277300
v 0.326071 -0.176032 -0.217874
v 0.326071 0.176032 -0.217874
v 0.362311 -0.176032 -0.150074
v 0.362311 0.176032 -0.150074
v 0.384627 -0.176032 -0.076507
v 0.384627 0.176032 -0.076507
v 0.392162 -0.176032 -0.000000
v 0.392162 0.176032 0.000000
v 0.384627 -0.176032 0.076507
v 0.384627 0.176032 0.076507
v 0.362310 -0.176032 0.150074
v 0.362310 0.176032 0.150074
v 0.326071 -0.176032 0.217873
v 0.326071 0.176032 0.217873
v 0.277300 -0.176032 0.277300
v 0.277300 0.176032 0.277300
v 0.217874 -0.176032 0.326071
v 0.217874 0.176032 0.326071
v 0.150074 -0.176032 0.362310
v 0.150074 0.176032 0.362310
v 0.076507 -0.176032 0.384626
v 0.076507 0.176032 0.384626
v -0.000000 -0.176032 0.392162
v 0.000000 0.176032 0.392162
v -0.076507 -0.176032 0.384626
v -0.076507 0.176032 0.384626
v -0.150074 -0.176032 0.362310
v -0.150074 0.176032 0.362310
v -0.217874 -0.176032 0.326070
v -0.217874 0.176032 0.326070
v -0.277300 -0.176032 0.277300
v -0.277300 0.176032 0.277300
v -0.326071 -0.176032 0.217873
v -0.326071 0.176032 0.217873
v -0.362310 -0.176032 0.150073
v -0.362310 0.176032 0.150073
v -0.384626 -0.176032 0.076506
v -0.384626 0.176032 0.076506
vn -0.3766 -0.6013 -0.7046
vn 0.7046 -0.6013 -0.3766
vn -0.9952 -0.0000 -0.0980
vn -0.3766 -0.6013 0.7046
vn 0.0783 0.6013 0.7951
vn -0.9569 0.0000 -0.2903
vn -0.7951 -0.6013 -0.0783
vn -0.7047 0.6013 -0.3766
vn -0.8819 0.0000 -0.4714
vn -0.7951 0.6013 0.0783
vn 0.7046 -0.6013 0.3766
vn -0.7730 0.0000 -0.6344
vn 0.3766 -0.6013 -0.7046
vn -0.6176 0.6013 0.5069
vn -0.6344 0.0000 -0.7730
vn 0.5069 0.6013 0.6176
vn -0.0783 0.6013 -0.7951
vn -0.4714 0.0000 -0.8819
vn -0.7951 -0.6013 0.0783
vn 0.0783 -0.6013 0.7951
vn -0.2903 0.0000 -0.9569
vn 0.7951 -0.6013 -0.0783
vn -0.7046 -0.6013 -0.3766
vn -0.0980 0.0000 -0.9952
vn -0.2319 0.6013 0.7646
vn 0.6176 0.6013 -0.5069
vn 0.0980 0.0000 -0.9952
vn -0.5069 0.6013 -0.6176
vn -0.6176 -0.6013 0.5069
vn 0.2903 0.0000 -0.9569
vn 0.5069 -0.6013 0.6176
vn -0.0783 -0.6013 -0.7951
vn 0.4714 0.0000 -0.8819
vn -0.7646 0.6013 0.2319
vn 0.7646 0.6013 0.2319
vn 0.6344 0.0000 -0.7730
vn 0.2319 0.6013 -0.7646
vn 0.6176 -0.6013 -0.5069
vn 0.7730 0.0000 -0.6344
vn -0.2319 -0.6013 0.7646
vn 0.2319 0.6013 0.7646
vn 0.8819 0.0000 -0.4714
vn -0.5069 -0.6013 -0.6176
vn -0.7646 0.6013 -0.2319
vn 0.9569 0.0000 -0.2903
vn 0.7646 0.6013 -0.2319
vn 0.7646 -0.6013 0.2319
vn 0.9952 0.0000 -0.0980
vn -0.7646 -0.6013 0.2319
vn -0.5069 0.6013 0.6176
vn 0.9952 -0.0000 0.0980
vn 0.2319 -0.6013 -0.7646
vn -0.2319 0.6013 -0.7646
vn 0.9569 -0.0000 0.2903
vn 0.6176 0.6013 0.5069
vn 0.2319 -0.6013 0.7646
vn 0.8819 -0.0000 0.4714
vn 0.7646 -0.6013 -0.2319
vn -0.7646 -0.6013 -0.2319
vn 0.7730 -0.0000 0.6344
vn -0.0783 0.6013 0.7951
vn 0.5069 0.6013 -0.6176
vn 0.6344 -0.0000 0.7730
vn -0.6176 0.6013 -0.5069
vn -0.5069 -0.6013 0.6176
vn 0.4714 -0.0000 0.8819
vn 0.6176 -0.6013 0.5069
vn -0.2319 -0.6013 -0.7646
vn 0.2903 -0.0000 0.9569
vn -0.7047 0.6013 0.3766
vn 0.7951 0.6013 0.0783
vn 0.0980 -0.0000 0.9952
vn 0.0783 0.6013 -0.7951
vn 0.5069 -0.6013 -0.6176
vn -0.0980 -0.0000 0.9952
vn -0.0783 -0.6013 0.7951
vn 0.3766 0.6013 0.7047
vn -0.2903 -0.0000 0.9569
vn -0.6176 -0.6013 -0.5069
vn 0.7951 -0.6013 0.0783
vn -0.4714 0.0000 0.8819
vn 0.7047 0.6013 -0.3766
vn -0.7951 0.6013 -0.0783
vn -0.6344 -0.0000 0.7730
vn -0.7046 -0.6013 0.3766
vn -0.3766 0.6013 0.7047
vn -0.7730 -0.0000 0.6344
vn 0.0783 -0.6013 -0.7951
vn 0.0000 -1.0000 -0.0000
vn -0.8819 0.0000 0.4714
vn -0.3766 0.6013 -0.7047
vn 0.0000 1.0000 -0.0000
vn -0.9569 -0.0000 0.2903
vn 0.7951 0.6013 -0.0783
vn 0.7046 0.6013 0.3766
vn -0.9952 -0.0000 0.0980
vn 0.3766 -0.6013 0.7046
vn 0.3766 0.6013 -0.7047
usemtl Material
s off
f 13//1 15//1 77//1 75//1
f 29//2 31//2 93//2 91//2
f 3//3 4//3 6//3 5//3
f 55//4 57//4 119//4 117//4
f 52//5 50//5 112//5 114//5
f 5//6 6//6 8//6 7//6
f 3//7 5//7 1//7 2//7
f 10//8 8//8 70//8 72//8
f 7//9 8//9 10//9 9//9
f 4//10 66//10 128//10 68//10
f 39//11 41//11 103//11 101//11
f 9//12 10//12 12//12 11//12
f 23//13 25//13 87//13 85//13
f 62//14 60//14 122//14 124//14
f 11//15 12//15 14//15 13//15
f 46//16 44//16 106//16 108//16
f 20//17 18//17 80//17 82//17
f 13//18 14//18 16//18 15//18
f 65//19 3//19 2//19 127//19
f 49//20 51//20 113//20 111//20
f 15//21 16//21 18//21 17//21
f 33//22 35//22 97//22 95//22
f 7//23 9//23 71//23 69//23
f 17//24 18//24 20//24 19//24
f 56//25 54//25 116//25 118//25
f 30//26 28//26 90//26 92//26
f 19//27 20//27 22//27 21//27
f 14//28 12//28 74//28 76//28
f 59//29 61//29 123//29 121//29
f 21//30 22//30 24//30 23//30
f 43//31 45//31 107//31 105//31
f 17//32 19//32 81//32 79//32
f 23//33 24//33 26//33 25//33
f 66//34 64//34 126//34 128//34
f 40//35 38//35 100//35 102//35
f 25//36 26//36 28//36 27//36
f 24//37 22//37 84//37 86//37
f 27//38 29//38 91//38 89//38
f 27//39 28//39 30//39 29//39
f 53//40 55//40 117//40 115//40
f 50//41 48//41 110//41 112//41
f 29//42 30//42 32//42 31//42
f 11//43 13//43 75//43 73//43
f 8//44 6//44 67//44 70//44
f 31//45 32//45 34//45 33//45
f 34//46 32//46 94//46 96//46
f 37//47 39//47 101//47 99//47
f 33//48 34//48 36//48 35//48
f 63//49 65//49 127//49 125//49
f 60//50 58//50 120//50 122//50
f 35//51 36//51 38//51 37//51
f 21//52 23//52 85//52 83//52
f 18//53 16//53 78//53 80//53
f 37//54 38//54 40//54 39//54
f 44//55 42//55 104//55 106//55
f 47//56 49//56 111//56 109//56
f 39//57 40//57 42//57 41//57
f 31//58 33//58 95//58 93//58
f 5//59 7//59 69//59 1//59
f 41//60 42//60 44//60 43//60
f 54//61 52//61 114//61 116//61
f 28//62 26//62 88//62 90//62
f 43//63 44//63 46//63 45//63
f 12//64 10//64 72//64 74//64
f 57//65 59//65 121//65 119//65
f 45//66 46//66 48//66 47//66
f 41//67 43//67 105//67 103//67
f 15//68 17//68 79//68 77//68
f 47//69 48//69 50//69 49//69
f 64//70 62//70 124//70 126//70
f 38//71 36//71 98//71 100//71
f 49//72 50//72 52//72 51//72
f 22//73 20//73 82//73 84//73
f 25//74 27//74 89//74 87//74
f 51//75 52//75 54//75 53//75
f 51//76 53//76 115//76 113//76
f 48//77 46//77 108//77 110//77
f 53//78 54//78 56//78 55//78
f 9//79 11//79 73//79 71//79
f 35//80 37//80 99//80 97//80
f 55//81 56//81 58//81 57//81
f 32//82 30//82 92//82 94//82
f 6//83 4//83 68//83 67//83
f 57//84 58//84 60//84 59//84
f 61//85 63//85 125//85 123//85
f 58//86 56//86 118//86 120//86
f 59//87 60//87 62//87 61//87
f 19//88 21//88 83//88 81//88
f 2//89 1//89 69//89 71//89 73//89 75//89 77//89 79//89 81//89 83//89 85//89 87//89 89//89 91//89 93//89 95//89 97//89 99//89 101//89 103//89 105//89 107//89 109//89 111//89 113//89 115//89 117//89 119//89 121//89 123//89 125//89 127//89
f 61//90 62//90 64//90 63//90
f 16//91 14//91 76//91 78//91
f 67//92 68//92 128//92 126//92 124//92 122//92 120//92 118//92 116//92 114//92 112//92 110//92 108//92 106//92 104//92 102//92 100//92 98//92 96//92 94//92 92//92 90//92 88//92 86//92 84//92 82//92 80//92 78//92 76//92 74//92 72//92 70//92
f 63//93 64//93 66//93 65//93
f 36//94 34//94 96//94 98//94
f 42//95 40//95 102//95 104//95
f 65//96 66//96 4//96 3//96
f 45//97 47//97 109//97 107//97
f 26//98 24//98 86//98 88//98
